<?xml version="1.0" encoding="UTF-8"?>
<svg width="20px" height="20px" viewBox="0 0 20 20" version="1.1" xmlns="http://www.w3.org/2000/svg" xmlns:xlink="http://www.w3.org/1999/xlink">
    <!-- Generator: Sketch 43.2 (39069) - http://www.bohemiancoding.com/sketch -->
    <title>email</title>
    <desc>Created with Sketch.</desc>
    <defs></defs>
    <g id="Symbols" stroke="none" stroke-width="1" fill="none" fill-rule="evenodd" opacity="0.5">
        <g id="Footer" transform="translate(-42.000000, -49.000000)" fill="#FFFFFF">
            <g id="Links-Copy">
                <g transform="translate(42.000000, 48.000000)">
                    <path d="M10,21 C15.5228475,21 20,16.5228475 20,11 C20,5.47715251 15.5228475,1 10,1 C4.47715251,1 0,5.47715251 0,11 C0,16.5228475 4.47715251,21 10,21 Z M16.3157971,9.23777985 C16.1043306,9.47039292 15.8646686,9.67481045 15.6109089,9.85103246 C14.4337459,10.647556 13.249534,11.4511284 12.1005664,12.2828963 C11.5084604,12.7199268 10.7753768,13.2556418 10.0070489,13.2556418 L10,13.2556418 L9.99295112,13.2556418 C9.22462314,13.2556418 8.49153956,12.7199268 7.89943359,12.2828963 C6.75046605,11.4440795 5.56625412,10.647556 4.39613994,9.85103246 C4.13533136,9.67481045 3.89566941,9.47039292 3.684203,9.23777985 L3.684203,14.8345911 C3.684203,15.4548925 4.1917224,15.9624119 4.81202389,15.9624119 L15.1879761,15.9624119 C15.8082776,15.9624119 16.3157971,15.4548925 16.3157971,14.8345911 L16.3157971,9.23777985 Z M16.3157971,7.16540896 C16.3157971,6.54510747 15.8012287,6.03758807 15.1879761,6.03758807 L4.81202389,6.03758807 C4.05779366,6.03758807 3.684203,6.62969404 3.684203,7.32048434 C3.684203,7.96193247 4.39613994,8.75845598 4.89661045,9.09680224 C5.98918695,9.85808135 7.0958612,10.6193605 8.18843769,11.3876884 C8.64661493,11.7048881 9.42199179,12.3533851 9.99295112,12.3533851 L10,12.3533851 L10.0070489,12.3533851 C10.5780082,12.3533851 11.3533851,11.7048881 11.8115623,11.3876884 C12.9041388,10.6193605 14.0108131,9.85808135 15.1104384,9.09680224 C15.7307399,8.66682053 16.3157971,7.95488359 16.3157971,7.16540896 Z" id="email"></path>
                </g>
            </g>
        </g>
    </g>
</svg>