<?xml version="1.0" encoding="UTF-8"?>
<svg width="20px" height="20px" viewBox="0 0 20 20" version="1.1" xmlns="http://www.w3.org/2000/svg" xmlns:xlink="http://www.w3.org/1999/xlink">
    <!-- Generator: Sketch 43.2 (39069) - http://www.bohemiancoding.com/sketch -->
    <title>feedback</title>
    <desc>Created with Sketch.</desc>
    <defs></defs>
    <g id="Symbols" stroke="none" stroke-width="1" fill="none" fill-rule="evenodd" opacity="0.5">
        <g id="Footer" transform="translate(-239.000000, -48.000000)" fill="#FFFFFF">
            <g id="Links-Copy">
                <g transform="translate(42.000000, 48.000000)">
                    <path d="M211.903139,11.5509284 C211.399785,12.1831062 210.711833,12.6832671 209.841427,13.0492648 C208.971022,13.417409 208.023343,13.5998712 206.999463,13.5998712 C206.537966,13.5998712 206.067883,13.5580122 205.584921,13.4721477 C204.92058,13.9433294 204.175745,14.2867876 203.350416,14.5003757 C203.158304,14.5486745 202.927556,14.5916067 202.659243,14.6302458 L202.634559,14.6302458 C202.576603,14.6302458 202.520794,14.6077063 202.470351,14.5647741 C202.418836,14.5218418 202.388785,14.4660298 202.378052,14.3962649 C202.372686,14.3801653 202.369466,14.3629924 202.369466,14.3447462 C202.369466,14.3254266 202.371613,14.3071804 202.373759,14.2921541 C202.376979,14.2749812 202.381272,14.2599549 202.389858,14.2438553 L202.41025,14.2030697 C202.41025,14.2030697 202.418836,14.1880434 202.438154,14.1590641 C202.457472,14.1290115 202.467132,14.1161318 202.467132,14.1161318 C202.467132,14.1161318 202.485377,14.1086187 202.505769,14.0785661 C202.528307,14.0495868 202.537966,14.0367071 202.537966,14.0367071 C202.564797,14.0098744 202.627046,13.9433294 202.723638,13.8424386 C202.820231,13.7394011 202.889992,13.6610497 202.932922,13.6041644 C202.975852,13.5483525 203.035954,13.4710744 203.113228,13.3712568 C203.190502,13.2725126 203.258116,13.1684018 203.313925,13.0621445 C203.370808,12.9548138 203.425543,12.83675 203.479206,12.7090265 C202.814865,12.322636 202.292192,11.8482344 201.911189,11.2858216 C201.531258,10.7223355 201.34022,10.122357 201.34022,9.48481271 C201.34022,8.73993775 201.593507,8.05194805 202.095787,7.41977031 C202.600215,6.78651927 203.287094,6.28743158 204.158573,5.92036063 C205.028978,5.55328969 205.976657,5.36975421 206.999463,5.36975421 C208.023343,5.36975421 208.971022,5.55328969 209.841427,5.92036063 C210.711833,6.28743158 211.399785,6.78651927 211.903139,7.41977031 C212.406493,8.05194805 212.658707,8.73993775 212.658707,9.48481271 C212.658707,10.230761 212.406493,10.9187507 211.903139,11.5509284 M206.999463,0 C201.477596,0 197,4.47676291 197,10 C197,15.5221638 201.477596,20 206.999463,20 C212.522404,20 217,15.5221638 217,10 C217,4.47676291 212.522404,0 206.999463,0" id="feedback"></path>
                </g>
            </g>
        </g>
    </g>
</svg>