<?xml version="1.0" encoding="UTF-8"?>
<svg width="20px" height="20px" viewBox="0 0 20 20" version="1.1" xmlns="http://www.w3.org/2000/svg" xmlns:xlink="http://www.w3.org/1999/xlink">
    <!-- Generator: Sketch 43.2 (39069) - http://www.bohemiancoding.com/sketch -->
    <title>github</title>
    <desc>Created with Sketch.</desc>
    <defs></defs>
    <g id="Symbols" stroke="none" stroke-width="1" fill="none" fill-rule="evenodd" opacity="0.5">
        <g id="Footer" transform="translate(-136.000000, -49.000000)" fill="#FFFFFF">
            <g id="Links-Copy">
                <g transform="translate(42.000000, 48.000000)">
                    <path d="M107.16339,20.9833918 C106.655679,21.0768433 106.487148,20.7573698 106.487148,20.4889686 L106.487148,17.6734728 C106.487148,16.7117925 106.174466,16.0978384 105.809847,15.7772781 C108.03572,15.52409 110.380306,14.6558611 110.380306,10.7178615 C110.380306,9.59644443 109.989189,8.67605656 109.352165,7.968651 C109.456039,7.70133647 109.79416,6.66033106 109.246171,5.24551995 C108.413058,4.97820542 106.499868,6.2995651 106.499868,6.2995651 C105.705973,6.07354304 104.845302,5.95292551 103.99947,5.95292551 C103.153638,5.95292551 102.294027,6.07354304 101.500133,6.2995651 C101.500133,6.2995651 99.5858816,4.97820542 98.7389899,5.24551995 C98.2058403,6.66033106 98.543961,7.70133647 98.6478351,7.968651 C98.0108114,8.67605656 97.6196937,9.59644443 97.6196937,10.7178615 C97.6196937,14.6428214 99.9505008,15.52409 102.177434,15.7772781 C101.89019,16.0445927 101.630505,16.4857704 101.53935,17.1529701 C100.965923,17.419198 99.5074461,17.8734154 98.6351158,16.2977809 C98.088187,15.3241475 97.0992634,15.2437358 97.0992634,15.2437358 C96.123059,15.230696 97.034607,15.8707296 97.034607,15.8707296 C97.6854099,16.17825 98.140124,17.3659524 98.140124,17.3659524 C98.7262706,19.194775 101.512852,18.5808209 101.512852,18.5808209 C101.512852,19.4349235 101.526631,20.2488201 101.526631,20.4889686 C101.526631,20.7573698 101.344321,21.0768433 100.83661,20.9833918 C96.8650167,19.6218264 94,15.7772781 94,11.2524906 C94,5.59215954 98.4793047,1 103.99947,1 C109.520695,1 114,5.59215954 114,11.2524906 C114,15.7772781 111.134983,19.6218264 107.16339,20.9833918" id="github"></path>
                </g>
            </g>
        </g>
    </g>
</svg>