<?xml version="1.0" encoding="UTF-8"?>
<svg width="20px" height="20px" viewBox="0 0 20 20" version="1.1" xmlns="http://www.w3.org/2000/svg" xmlns:xlink="http://www.w3.org/1999/xlink">
    <!-- Generator: Sketch 43.2 (39069) - http://www.bohemiancoding.com/sketch -->
    <title>legal</title>
    <desc>Created with Sketch.</desc>
    <defs></defs>
    <g id="Symbols" stroke="none" stroke-width="1" fill="none" fill-rule="evenodd" opacity="0.5">
        <g id="Footer" transform="translate(-813.000000, -49.000000)" fill="#FFFFFF">
            <g id="Links-Copy">
                <g transform="translate(42.000000, 48.000000)">
                    <path d="M786.978939,7.91014519 L780.084385,15.9723075 C780.048968,16.0123183 779.998526,16.0312707 779.948083,16.0270591 C779.915885,16.0239003 779.884761,16.0123183 779.85793,15.9902071 L775.267643,12.2112988 C775.200028,12.1565473 775.191442,12.0586263 775.247251,11.9922927 L776.66716,10.3329003 C776.722969,10.2676196 776.822781,10.2591963 776.890396,10.3150007 L779.670111,12.6029828 L785.044944,6.31919217 C785.101826,6.25285859 785.201638,6.24443528 785.268179,6.29918681 L786.95962,7.692192 C787.027235,7.74694353 787.035821,7.84486453 786.978939,7.91014519 M781.000537,1 C775.477596,1 771,5.47759592 771,10.9994634 C771,16.5224041 775.477596,21 781.000537,21 C786.523477,21 791,16.5224041 791,10.9994634 C791,5.47759592 786.523477,1 781.000537,1" id="legal"></path>
                </g>
            </g>
        </g>
    </g>
</svg>