<?xml version="1.0" encoding="UTF-8"?>
<svg width="20px" height="20px" viewBox="0 0 20 20" version="1.1" xmlns="http://www.w3.org/2000/svg" xmlns:xlink="http://www.w3.org/1999/xlink">
    <!-- Generator: Sketch 43.2 (39069) - http://www.bohemiancoding.com/sketch -->
    <title>icons / logout-white</title>
    <desc>Created with Sketch.</desc>
    <defs></defs>
    <g id="Symbols" stroke="none" stroke-width="1" fill="none" fill-rule="evenodd">
        <g id="icons-/-logout-white" fill="#FFFFFF">
            <path d="M2.28515625,10.875 L4.58984375,13.1601562 C4.70703184,13.2903652 4.765625,13.4401033 4.765625,13.609375 C4.765625,13.7786467 4.70703184,13.9283848 4.58984375,14.0585938 C4.52473926,14.1106773 4.45312539,14.1529946 4.375,14.1855469 C4.29687461,14.2180991 4.21875039,14.234375 4.140625,14.234375 C4.06249961,14.234375 3.98437539,14.2180991 3.90625,14.1855469 C3.82812461,14.1529946 3.75651074,14.1106773 3.69140625,14.0585938 L0,10.2695312 L3.69140625,6.48046875 C3.82161523,6.35025977 3.97135332,6.28515625 4.140625,6.28515625 C4.30989668,6.28515625 4.45963477,6.35025977 4.58984375,6.48046875 C4.70703184,6.59765684 4.765625,6.74413975 4.765625,6.91992188 C4.765625,7.095704 4.70703184,7.24218691 4.58984375,7.359375 L2.32421875,9.625 L13.1054688,9.625 C13.2877613,9.625 13.4374994,9.68359316 13.5546875,9.80078125 C13.6718756,9.91796934 13.7304688,10.0677074 13.7304688,10.25 C13.7304688,10.4192717 13.6718756,10.5657546 13.5546875,10.6894531 C13.4374994,10.8131517 13.2877613,10.875 13.1054688,10.875 L2.28515625,10.875 Z M18.75,0.25 C19.0885434,0.25 19.3815092,0.370441504 19.6289062,0.611328125 C19.8763033,0.852214746 20,1.14843574 20,1.5 L20,19 C20,19.3515643 19.8763033,19.6477853 19.6289062,19.8886719 C19.3815092,20.1295585 19.0885434,20.25 18.75,20.25 L8.125,20.25 C7.77343574,20.25 7.47721475,20.1295585 7.23632812,19.8886719 C6.9954415,19.6477853 6.875,19.3515643 6.875,19 L6.875,13.3554688 L8.125,13.3554688 L8.125,18.2382812 C8.125,18.4466156 8.19986904,18.6256503 8.34960938,18.7753906 C8.49934971,18.925131 8.67838438,19 8.88671875,19 L17.9882812,19 C18.1966156,19 18.3723951,18.925131 18.515625,18.7753906 C18.6588549,18.6256503 18.7304688,18.4466156 18.7304688,18.2382812 L18.7109375,2.26171875 C18.7109375,2.05338438 18.6393236,1.87434971 18.4960938,1.72460938 C18.3528639,1.57486904 18.1770844,1.5 17.96875,1.5 L8.88671875,1.5 C8.67838438,1.5 8.49934971,1.57486904 8.34960938,1.72460938 C8.19986904,1.87434971 8.125,2.05338438 8.125,2.26171875 L8.125,7.125 L6.875,7.125 L6.875,1.5 C6.875,1.14843574 6.9954415,0.852214746 7.23632812,0.611328125 C7.47721475,0.370441504 7.77343574,0.25 8.125,0.25 L18.75,0.25 Z" id="Logout---simple-line-icons" transform="translate(10.000000, 10.250000) scale(-1, 1) translate(-10.000000, -10.250000) "></path>
        </g>
    </g>
</svg>