<?xml version="1.0" encoding="UTF-8"?>
<svg width="20px" height="20px" viewBox="0 0 20 20" version="1.1" xmlns="http://www.w3.org/2000/svg" xmlns:xlink="http://www.w3.org/1999/xlink">
    <!-- Generator: Sketch 43.2 (39069) - http://www.bohemiancoding.com/sketch -->
    <title>icons / notification-white</title>
    <desc>Created with Sketch.</desc>
    <defs></defs>
    <g id="Symbols" stroke="none" stroke-width="1" fill="none" fill-rule="evenodd">
        <g id="icons-/-notification-white" fill="#FFFFFF">
            <path d="M17.6953125,14.15625 C18.0338559,14.5729187 18.3007803,14.9440088 18.4960937,15.2695312 C18.6914072,15.5950537 18.7109383,15.9205713 18.5546875,16.2460938 C18.3984367,16.5716162 18.144533,16.7604164 17.7929687,16.8125 C17.4414045,16.8645836 17.1679697,16.890625 16.9726562,16.890625 L13.3203125,16.890625 C13.3203125,17.8151088 12.9947949,18.6028613 12.34375,19.2539062 C11.6927051,19.9049512 10.9049525,20.2304688 9.98046875,20.2304688 C9.05598496,20.2304688 8.26823242,19.9049512 7.6171875,19.2539062 C6.96614258,18.6028613 6.640625,17.8151088 6.640625,16.890625 L3.06640625,16.890625 C2.76692559,16.890625 2.45768389,16.8548181 2.13867187,16.7832031 C1.81965986,16.7115882 1.58854238,16.5325535 1.4453125,16.2460938 C1.28906172,15.9205713 1.30208242,15.5852882 1.484375,15.2402344 C1.66666758,14.8951806 1.91406094,14.514325 2.2265625,14.0976562 C2.57812676,13.6419248 2.9622375,13.1243519 3.37890625,12.5449219 C3.795575,11.9654919 4.00390625,11.3632844 4.00390625,10.7382812 L4.00390625,6.65625 C4.00390625,5.77082891 4.15689951,4.94075908 4.46289062,4.16601562 C4.76888174,3.39127217 5.18879941,2.71419561 5.72265625,2.13476562 C6.25651309,1.55533564 6.88801719,1.09961104 7.6171875,0.767578125 C8.34635781,0.435545215 9.1276,0.26953125 9.9609375,0.26953125 C10.8072959,0.26953125 11.5950484,0.435545215 12.3242187,0.767578125 C13.0533891,1.09961104 13.6881483,1.55533564 14.2285156,2.13476562 C14.7688829,2.71419561 15.1920558,3.39127217 15.4980469,4.16601562 C15.804038,4.94075908 15.9570312,5.77082891 15.9570312,6.65625 L15.9570312,10.7382812 C15.9570312,11.3763053 16.155597,11.9947887 16.5527344,12.59375 C16.9498718,13.1927113 17.3307273,13.7135395 17.6953125,14.15625 Z M9.98046875,18.921875 C10.5403674,18.921875 11.0188782,18.7233093 11.4160156,18.3261719 C11.813153,17.9290345 12.0117187,17.4505236 12.0117187,16.890625 L7.94921875,16.890625 C7.94921875,17.4505236 8.14778447,17.9290345 8.54492188,18.3261719 C8.94205928,18.7233093 9.42057012,18.921875 9.98046875,18.921875 Z M17.109375,15.5625 C17.0442705,15.4713537 16.9726566,15.3769536 16.8945312,15.2792969 C16.8164059,15.1816401 16.7382816,15.08724 16.6601562,14.9960938 C16.2304666,14.4752578 15.7845075,13.8535192 15.3222656,13.1308594 C14.8600237,12.4081995 14.6289062,11.6106814 14.6289062,10.7382812 L14.6289062,6.65625 C14.6289062,5.95312148 14.5084647,5.29557598 14.2675781,4.68359375 C14.0266915,4.07161152 13.6979187,3.5377627 13.28125,3.08203125 C12.8645813,2.6262998 12.3730497,2.26497529 11.8066406,1.99804688 C11.2402315,1.73111846 10.6250033,1.59765625 9.9609375,1.59765625 C9.30989258,1.59765625 8.70117471,1.73111846 8.13476562,1.99804688 C7.56835654,2.26497529 7.076825,2.6262998 6.66015625,3.08203125 C6.2434875,3.5377627 5.91796992,4.07161152 5.68359375,4.68359375 C5.44921758,5.29557598 5.33203125,5.95312148 5.33203125,6.65625 L5.33203125,10.7382812 C5.33203125,11.5846396 5.08789307,12.3626267 4.59960938,13.0722656 C4.11132568,13.7819046 3.6783873,14.3906225 3.30078125,14.8984375 C3.22265586,15.0026047 3.14127646,15.1132807 3.05664062,15.2304688 C2.97200479,15.3476568 2.89713574,15.4583328 2.83203125,15.5625 L17.109375,15.5625 Z" id="Bell---simple-line-icons"></path>
        </g>
    </g>
</svg>