<?xml version="1.0" encoding="UTF-8"?>
<svg width="20px" height="20px" viewBox="0 0 20 20" version="1.1" xmlns="http://www.w3.org/2000/svg" xmlns:xlink="http://www.w3.org/1999/xlink">
    <!-- Generator: Sketch 43.2 (39069) - http://www.bohemiancoding.com/sketch -->
    <title>privacy</title>
    <desc>Created with Sketch.</desc>
    <defs></defs>
    <g id="Symbols" stroke="none" stroke-width="1" fill="none" fill-rule="evenodd" opacity="0.5">
        <g id="Footer" transform="translate(-910.000000, -49.000000)" fill="#FFFFFF">
            <g id="Links-Copy">
                <g transform="translate(42.000000, 48.000000)">
                    <path d="M878,1 C883.523237,1 888,5.47783621 888,11 C888,16.5232371 883.523237,21 878,21 C872.476763,21 868,16.5232371 868,11 C868,5.47783621 872.476763,1 878,1 Z M882.210526,15.8084211 L882.210526,9.49263158 L881.123158,9.49263158 L881.123158,8.33157895 C881.123158,6.61157895 879.722105,5.21052632 878,5.21052632 C876.278947,5.21052632 874.877895,6.61157895 874.877895,8.33157895 L874.877895,9.49263158 L873.789474,9.49263158 L873.789474,15.8084211 L882.210526,15.8084211 Z M878,6.57947368 C878.967368,6.57947368 879.753684,7.36578947 879.753684,8.33210526 L879.753684,9.49315789 L876.247368,9.49315789 L876.247368,8.33210526 C876.247368,7.36578947 877.033684,6.57947368 878,6.57947368 Z" id="privacy"></path>
                </g>
            </g>
        </g>
    </g>
</svg>