<?xml version="1.0" encoding="UTF-8" standalone="no"?>
<svg
   xmlns:dc="http://purl.org/dc/elements/1.1/"
   xmlns:cc="http://creativecommons.org/ns#"
   xmlns:rdf="http://www.w3.org/1999/02/22-rdf-syntax-ns#"
   xmlns:svg="http://www.w3.org/2000/svg"
   xmlns="http://www.w3.org/2000/svg"
   version="1.1"
   id="Layer_1"
   x="0px"
   y="0px"
   width="18"
   height="18"
   viewBox="0 0 18 18"
   xml:space="preserve"><metadata
     id="metadata9"><rdf:RDF><cc:Work
         rdf:about=""><dc:format>image/svg+xml</dc:format><dc:type
           rdf:resource="http://purl.org/dc/dcmitype/StillImage" /><dc:title></dc:title></cc:Work></rdf:RDF></metadata><defs
     id="defs7" /><path
     d="M 18,16.90781 12.689063,11.59219 C 13.664063,10.37344 14.25,8.82187 14.25,7.13437 14.25,3.19219 11.057813,0 7.125,0 3.1875,0 0,3.19687 0,7.13437 c 0,3.9375 3.192188,7.13438 7.125,7.13438 1.696875,0 3.253125,-0.59531 4.476563,-1.58438 L 16.907813,18 Z M 2.615625,11.65312 C 1.410938,10.44844 0.75,8.84531 0.75,7.13906 0.75,5.43281 1.415625,3.82969 2.615625,2.625 3.815625,1.42031 5.423438,0.75 7.125,0.75 c 1.701563,0 3.304688,0.66562 4.509375,1.87031 C 12.839063,3.825 13.5,5.42813 13.5,7.13437 c 0,1.70625 -0.665625,3.30938 -1.865625,4.51407 -1.204687,1.20468 -2.807812,1.87031 -4.509375,1.87031 -1.701562,0.005 -3.304687,-0.66094 -4.509375,-1.86563 z"
     id="path2"
     style="fill:#ffffff;stroke-width:0.046875" /></svg>