<?xml version="1.0" encoding="UTF-8"?>
<svg width="82px" height="83px" viewBox="0 0 82 83" version="1.1" xmlns="http://www.w3.org/2000/svg" xmlns:xlink="http://www.w3.org/1999/xlink">
    <!-- Generator: Sketch 43.2 (39069) - http://www.bohemiancoding.com/sketch -->
    <title>icons / success-green</title>
    <desc>Created with Sketch.</desc>
    <defs></defs>
    <g id="Symbols" stroke="none" stroke-width="1" fill="none" fill-rule="evenodd">
        <g id="icons-/-success-green" fill="#6A9C1F">
            <path d="M57.03125,26.0703125 L60.546875,29.5859375 L34.375,55.953125 C33.8541641,56.4739609 33.2682324,56.734375 32.6171875,56.734375 C31.9661426,56.734375 31.3802109,56.4739609 30.859375,55.953125 L19.921875,45.015625 L23.4375,41.5 L32.6171875,50.6796875 L57.03125,26.0703125 Z M40.625,0.875 C51.8229727,0.875 61.3931895,4.84631445 69.3359375,12.7890625 C77.2786855,20.7318105 81.25,30.3020273 81.25,41.5 C81.25,52.6979727 77.2786855,62.2681895 69.3359375,70.2109375 C61.3931895,78.1536855 51.8229727,82.125 40.625,82.125 C29.4270273,82.125 19.8568105,78.1536855 11.9140625,70.2109375 C3.97131445,62.2681895 0,52.6979727 0,41.5 C0,30.3020273 3.97131445,20.7318105 11.9140625,12.7890625 C19.8568105,4.84631445 29.4270273,0.875 40.625,0.875 Z M40.625,78.8046875 C50.9115098,78.8046875 59.7004844,75.1588906 66.9921875,67.8671875 C74.2838906,60.5754844 77.9296875,51.7865098 77.9296875,41.5 C77.9296875,31.2134902 74.2838906,22.4245156 66.9921875,15.1328125 C59.7004844,7.84110938 50.9115098,4.1953125 40.625,4.1953125 C30.3384902,4.1953125 21.5495156,7.84110938 14.2578125,15.1328125 C6.96610938,22.4245156 3.3203125,31.2134902 3.3203125,41.5 C3.3203125,51.7865098 6.96610938,60.5754844 14.2578125,67.8671875 C21.5495156,75.1588906 30.3384902,78.8046875 40.625,78.8046875 Z" id="ion-ios-checkmark-outline---Ionicons"></path>
        </g>
    </g>
</svg>